<svg
  width="1280"
  height="720"
  viewBox="0 0 1280 720"
  version="1.1"
  id="lfhsNewMediaLogo"
  xml:space="preserve"
  xmlns="http://www.w3.org/2000/svg"
  xmlns:svg="http://www.w3.org/2000/svg">
  <path
    id="newMediaText"
    style="fill:var(--foreground-color);"
    d="m 490.55515,361.21212 v 2.54444 c 0.73372,0 1.35284,0.20638 1.85724,0.61909 0.55031,0.41272 0.82546,1.0318 0.82546,1.85724 v 63.97185 c 0,0.82546 -0.27527,1.46679 -0.82546,1.92537 -0.5044,0.4127 -1.12352,0.61908 -1.85724,0.61908 v 2.54646 h 20.84244 v -2.54646 c -2.15531,0 -3.23366,-0.84771 -3.23366,-2.54445 v -46.77579 l 42.99318,44.85043 c 1.51332,1.51331 2.26996,2.58965 2.26996,3.23164 0,0.82546 -0.61908,1.23817 -1.85725,1.23817 v 2.54646 h 22.83593 v -2.54646 c -0.73373,0 -1.3751,-0.20626 -1.92536,-0.61908 -0.50444,-0.45858 -0.75734,-1.09991 -0.75734,-1.92537 v -63.97185 c 0,-0.82544 0.25278,-1.44452 0.75734,-1.85724 0.55026,-0.41273 1.19163,-0.61909 1.92536,-0.61909 v -2.54444 H 553.1506 v 2.54444 c 2.43046,0 3.64637,0.82545 3.64637,2.47633 v 44.8484 l -40.44673,-42.02747 c -1.88015,-1.88017 -2.82091,-3.18712 -2.82091,-3.92085 0,-0.91716 0.39045,-1.37641 1.17004,-1.37641 v -2.54444 z m 344.04753,0 v 2.54444 c 1.8802,0 2.82095,0.7344 2.82095,2.20185 v 64.24633 c 0,1.69674 -0.94075,2.54445 -2.82095,2.54445 v 2.54646 h 21.11891 v -2.54646 c -2.61388,0 -3.92082,-0.84771 -3.92082,-2.54445 v -46.91203 h 0.27449 l 27.7906,52.00294 h 0.4127 l 28.27147,-51.8667 h 0.34273 v 46.77579 c 0,1.69674 -1.28268,2.54445 -3.85073,2.54445 v 2.54646 h 22.14872 v -2.54646 c -1.88019,0 -2.82091,-0.84771 -2.82091,-2.54445 v -64.24633 c 0,-1.46745 0.94072,-2.20185 2.82091,-2.20185 v -2.54444 h -26.06959 v 2.54444 c 1.23817,0 1.85725,0.50377 1.85725,1.51265 0,0.64201 -0.66557,2.24837 -1.99546,4.81642 l -20.29148,36.18126 -20.15525,-36.59398 c -0.13763,-0.32102 -0.4127,-0.82678 -0.82545,-1.51465 -0.36677,-0.73373 -0.64192,-1.30628 -0.82542,-1.719 -0.13763,-0.41272 -0.20625,-0.75666 -0.20625,-1.03181 0,-0.50443 0.22874,-0.8949 0.6872,-1.17004 0.50443,-0.32102 1.03245,-0.48085 1.58275,-0.48085 v -2.54444 z m -180.34132,9.56071 c 0,0.73373 -0.36599,1.35281 -1.09991,1.85725 -0.73372,0.45858 -1.81204,0.6872 -3.23366,0.6872 h -50.00741 v 2.54645 c 0.55031,0 1.03179,0.1821 1.4445,0.54896 0.45858,0.36689 0.6872,0.87263 0.6872,1.51466 v 52.6901 c 0,0.64203 -0.22874,1.17004 -0.6872,1.58279 -0.41271,0.36677 -0.89419,0.54895 -1.4445,0.54895 v 2.54646 h 51.72841 c 2.61393,0 3.92087,0.66359 3.92087,1.99348 h 2.54444 v -15.2707 h -2.54444 c 0,0.87128 -0.36832,1.55914 -1.10193,2.06361 -0.73372,0.5044 -1.67246,0.75734 -2.81894,0.75734 h -36.11311 v -16.57699 h 20.56594 c 2.06361,0 3.55468,0.15973 4.47182,0.48083 0.96301,0.27526 1.30694,0.87194 1.03179,1.78912 h 2.82096 v -14.99621 h -2.54646 c 0,0.96301 -0.3439,1.58209 -1.03179,1.85724 -0.64204,0.27527 -1.83368,0.41271 -3.57628,0.41271 h -21.73598 v -14.10062 h 34.39211 c 1.51331,0 2.61392,0.20625 3.30178,0.61908 0.6879,0.41271 1.03179,1.1006 1.03179,2.06358 h 2.54646 v -15.61529 z m 352.16574,0 c 0,0.73373 -0.366,1.35281 -1.0999,1.85725 -0.7338,0.45858 -1.8121,0.6872 -3.2337,0.6872 h -50.00743 v 2.54645 c 0.55031,0 1.03183,0.1821 1.44454,0.54896 0.45861,0.36689 0.6872,0.87263 0.6872,1.51466 v 52.6901 c 0,0.64203 -0.22874,1.17004 -0.6872,1.58279 -0.41271,0.36677 -0.89423,0.54895 -1.44454,0.54895 v 2.54646 h 51.72643 c 2.6139,0 3.9209,0.66359 3.9209,1.99348 h 2.5464 v -15.2707 h -2.5464 c 0,0.87128 -0.3664,1.55914 -1.0999,2.06361 -0.7338,0.5044 -1.6745,0.75734 -2.821,0.75734 h -36.11311 v -16.57699 h 20.56795 c 2.06366,0 3.55466,0.15973 4.47186,0.48083 0.963,0.27526 1.3069,0.87194 1.0318,1.78912 h 2.8189 v -14.99621 h -2.5445 c 0,0.96301 -0.3438,1.58209 -1.0317,1.85724 -0.6421,0.27527 -1.8337,0.41271 -3.57631,0.41271 h -21.738 v -14.10062 h 34.39411 c 1.5134,0 2.6139,0.20625 3.3018,0.61908 0.6879,0.41271 1.0318,1.1006 1.0318,2.06358 h 2.5444 v -15.61529 z m -336.48829,2.54445 0.002,2.54645 c 1.42163,0.22929 2.40689,1.12352 2.9572,2.6827 l 18.57245,48.8374 c 0.87128,2.01771 1.30628,3.43999 1.30628,4.26545 0,0.73372 -0.48149,1.09991 -1.44454,1.09991 v 2.54646 h 17.33433 v -2.54646 c -0.87132,0 -1.44388,-0.13764 -1.71899,-0.41271 -0.27527,-0.27527 -0.41275,-0.80122 -0.41275,-1.58078 0,-0.4127 1.16939,-3.55464 3.50816,-9.42448 2.38459,-5.91566 4.86096,-12.10652 7.42898,-18.57245 2.56805,-6.466 4.03481,-10.40908 4.40169,-11.83071 h 0.34467 c 1.69673,5.22781 3.71387,11.16577 6.0526,17.81516 2.33877,6.64939 4.17376,11.87719 5.50361,15.68341 1.37576,3.76036 2.06362,5.87046 2.06362,6.32907 0,0.77959 -0.11553,1.28337 -0.34466,1.51266 -0.18339,0.22913 -0.61843,0.38906 -1.30629,0.48083 v 2.54646 h 19.6724 v -2.54646 c -0.5503,0 -1.00752,-0.15974 -1.3744,-0.48083 -0.36676,-0.32102 -0.55096,-0.75598 -0.55096,-1.30628 0,-0.27527 0.11553,-0.73442 0.34466,-1.37642 0.27527,-0.6879 0.64134,-1.58209 1.09991,-2.6827 0.45858,-1.14643 0.82476,-2.10948 1.09991,-2.88904 l 16.16623,-42.92305 c 1.19234,-3.4852 2.61261,-5.22714 4.26348,-5.22714 v -2.54645 h -17.95341 v 2.54645 c 1.51332,0 2.26999,0.64135 2.26999,1.92536 0,0.87132 -0.5503,2.84387 -1.65091,5.91637 l -13.13695,34.25586 -12.38164,-33.91329 c -1.42162,-3.89791 -2.13375,-6.07482 -2.13375,-6.53341 0,-1.10059 0.84972,-1.65089 2.54646,-1.65089 v -2.54645 h -20.15524 v 2.54645 c 1.51331,0 2.26995,0.64135 2.26995,1.92536 0,0.73373 -0.66557,2.95719 -1.99546,6.67169 l -11.96893,33.50054 h -0.27449 l -12.38163,-34.25586 c -1.3299,-3.57694 -1.9955,-5.54949 -1.9955,-5.91637 0,-1.28401 0.61908,-1.92536 1.85724,-1.92536 v -2.54645 z m 359.32019,0 v 2.54645 c 2.1554,0 3.2316,0.68787 3.2316,2.06362 v 52.6901 c 0,1.42162 -1.0762,2.13174 -3.2316,2.13174 v 2.54646 h 39.7575 c 5.3195,0 9.997,-0.87198 14.0326,-2.61458 4.0813,-1.7426 7.2698,-4.10363 9.5626,-7.08439 2.3388,-2.98077 4.0808,-6.2603 5.2272,-9.83719 1.1465,-3.57693 1.719,-7.40673 1.719,-11.4881 0,-4.03547 -0.5948,-7.84103 -1.7871,-11.41796 -1.1923,-3.62276 -3.0051,-6.90225 -5.4355,-9.83719 -2.3846,-2.98077 -5.6399,-5.34179 -9.7671,-7.08439 -4.0813,-1.7426 -8.7811,-2.61457 -14.1006,-2.61457 z m 90.3099,0 v 2.54645 c 2.6598,0 3.991,0.68787 3.991,2.06362 v 52.6901 c 0,1.42162 -1.3312,2.13174 -3.991,2.13174 v 2.54646 h 21.4615 v -2.54646 c -2.6598,0 -3.989,-0.71012 -3.989,-2.13174 v -52.6901 c 0,-1.37575 1.3292,-2.06362 3.989,-2.06362 v -2.54645 z m 63.4169,0 v 2.54645 c 0.046,0 0.09,0.0221 0.1361,0.0681 0.642,0.32102 0.9636,0.80252 0.9636,1.44453 0,0.82542 -0.6191,2.66041 -1.8572,5.50362 l -20.9807,45.81209 c -1.1006,2.47636 -2.5451,3.82785 -4.3335,4.0571 v 2.54646 h 18.8489 v -2.54646 c -0.9172,0 -1.605,-0.11321 -2.0636,-0.34273 -0.4128,-0.22913 -0.6191,-0.66627 -0.6191,-1.30826 0,-0.45861 0.435,-1.69678 1.3063,-3.71449 l 3.9208,-7.56526 h 30.1287 l 3.8527,7.97797 c 0.6421,1.60504 0.9617,2.75214 0.9617,3.44 0,0.59616 -0.2508,1.07765 -0.7553,1.44453 -0.5044,0.32102 -1.0102,0.48083 -1.5146,0.48083 v 2.13375 h 20.017 v -2.54646 c -1.5592,-0.36676 -2.682,-1.26107 -3.3699,-2.6827 l -22.8379,-47.8757 c -0.1834,-0.41271 -0.4809,-1.00752 -0.8936,-1.78711 -0.4126,-0.82546 -0.7101,-1.44454 -0.8936,-1.85725 -0.1376,-0.45857 -0.2062,-0.84903 -0.2062,-1.17005 0,-0.27515 0.044,-0.50377 0.136,-0.6872 0.1377,-0.22929 0.2528,-0.36688 0.3447,-0.41272 0.1376,-0.0917 0.3218,-0.16051 0.551,-0.20637 0.2295,-0.0917 0.3671,-0.16051 0.4127,-0.20638 v -2.54645 z m -118.6455,10.38616 c 2.7056,0 4.9514,0.0931 6.7398,0.27643 1.8343,0.18338 3.7847,0.66495 5.8482,1.44454 2.0637,0.77959 3.6903,1.88019 4.8826,3.30178 1.2382,1.37572 2.2477,3.34831 3.0273,5.91632 0.8254,2.5222 1.2381,5.59333 1.2381,9.21613 0,3.66863 -0.4127,6.81056 -1.2381,9.42448 -0.7796,2.61389 -1.7891,4.65521 -3.0273,6.1227 -1.2382,1.46745 -2.8648,2.63684 -4.8826,3.50812 -2.0177,0.82549 -3.968,1.35153 -5.8482,1.58077 -1.8801,0.22913 -4.1259,0.34467 -6.7398,0.34467 h -18.298 v -41.13392 z m 128.2062,1.9955 11.418,23.66336 h -21.4616 z" />
  <path
    id="lfhsText"
    style="fill:var(--foreground-color);"
    d="m 671.32321,318.49944 c 0,0.91627 -0.72927,1.3744 -2.18784,1.3744 H 642.4888 v 1.03781 c 0.99105,0 1.48661,0.33661 1.48661,1.00977 v 26.08561 c 0,0.69187 -0.49556,1.03781 -1.48661,1.03781 v 1.03782 h 9.76105 v -1.03782 c -1.14062,0 -1.71097,-0.34594 -1.71097,-1.03781 v -11.13547 h 11.24765 c 0.82278,0 1.43054,0.14957 1.8232,0.44878 0.39267,0.2805 0.58904,0.82277 0.58904,1.62685 h 1.0378 v -8.27447 h -1.0378 c 0,0.48617 -0.19618,0.82276 -0.58904,1.00976 -0.39266,0.16831 -1.00042,0.25244 -1.8232,0.25244 h -11.24765 v -7.12446 h 18.59649 c 1.45857,0 2.18784,0.42073 2.18784,1.26221 h 1.0378 v -7.57325 z m 368.02949,1.00976 c -2.3001,0 -4.3663,0.27116 -6.1989,0.81343 -1.8138,0.54228 -3.2724,1.27155 -4.3756,2.18782 -1.1033,0.89757 -1.9448,1.90733 -2.5245,3.0293 -0.5609,1.12196 -0.8414,2.29066 -0.8414,3.50613 0,1.90733 0.4301,3.48743 1.2902,4.74028 0.8602,1.23416 1.9728,2.11303 3.3379,2.63661 1.365,0.52359 2.8797,0.90693 4.5439,1.15001 1.6643,0.24309 3.3192,0.3927 4.9647,0.44879 1.6642,0.0561 3.1789,0.14961 4.5439,0.2805 1.3651,0.13089 2.4777,0.43944 3.3379,0.92562 0.8601,0.48619 1.2902,1.19676 1.2902,2.13173 0,0.65448 -0.2431,1.2435 -0.7292,1.76709 -0.4862,0.52358 -1.0846,0.92561 -1.7952,1.2061 -0.6919,0.28051 -1.4959,0.51423 -2.4122,0.70123 -0.8976,0.18699 -1.6923,0.30853 -2.3842,0.36464 -0.6918,0.0561 -1.337,0.0841 -1.9353,0.0841 -1.8887,0 -3.9643,-0.38332 -6.227,-1.15002 -2.2439,-0.76667 -3.6483,-1.60814 -4.2093,-2.52441 -0.1683,-0.2805 -0.2505,-0.58903 -0.2505,-0.92562 l -0.561,-0.2805 -3.1695,6.95616 0.8134,0.44879 c 0.2245,-0.29919 0.4769,-0.44879 0.7573,-0.44879 0.3366,0 0.8508,0.14958 1.5427,0.44879 0.6919,0.29919 1.4379,0.62643 2.242,0.98172 0.8227,0.35529 2.0589,0.68252 3.7044,0.98171 1.6456,0.29919 3.4781,0.44878 5.4976,0.44878 1.3464,0 2.6834,-0.0841 4.0111,-0.25243 1.3463,-0.1683 2.7394,-0.48618 4.1793,-0.95367 1.4398,-0.46748 2.6927,-1.04716 3.7585,-1.73903 1.0846,-0.71058 1.9728,-1.66425 2.6647,-2.86101 0.7106,-1.19676 1.0659,-2.55246 1.0659,-4.06711 0,-1.86994 -0.4301,-3.41263 -1.2903,-4.62809 -0.8602,-1.23416 -1.9822,-2.11303 -3.3659,-2.63661 -1.3651,-0.52358 -2.8797,-0.90692 -4.5439,-1.15001 -1.6456,-0.26178 -3.3005,-0.43008 -4.9647,-0.50488 -1.6456,-0.0748 -3.1602,-0.19637 -4.544,-0.36464 -1.365,-0.1683 -2.4776,-0.51423 -3.3378,-1.03781 -0.8602,-0.52358 -1.2902,-1.27156 -1.2902,-2.24392 0,-0.59839 0.2338,-1.13131 0.7012,-1.5988 0.4675,-0.46749 1.0752,-0.83212 1.8232,-1.09391 0.7667,-0.2805 1.5707,-0.48619 2.4122,-0.61708 0.8602,-0.13089 1.739,-0.19633 2.6366,-0.19633 2.1504,0 4.2728,0.38332 6.3671,1.15001 2.1131,0.76667 3.4781,1.60814 4.0952,2.52441 0.2617,0.39269 0.4207,0.83212 0.4768,1.31831 l 0.561,0.2244 3.9549,-7.18056 -0.6732,-0.44878 c -0.2244,0.2244 -0.6077,0.3366 -1.15,0.3366 -0.3927,0 -1.0191,-0.14962 -1.8792,-0.44879 -0.8602,-0.29919 -1.7765,-0.62643 -2.7488,-0.98171 -0.9537,-0.37398 -2.272,-0.71058 -3.955,-1.00977 -1.6642,-0.29919 -3.4033,-0.44879 -5.2171,-0.44879 z m -550.45645,0.36463 v 1.03782 c 1.15938,0 1.73904,0.3366 1.73904,1.00977 v 26.0856 c 0,0.69188 -0.57966,1.03782 -1.73904,1.03782 v 1.03781 h 27.3478 c 0.67321,0 1.16873,0.0748 1.48661,0.2244 0.31791,0.16831 0.47683,0.51424 0.47683,1.03782 h 1.00977 v -8.05008 h -1.00977 c 0,0.46748 -0.18687,0.84147 -0.56097,1.12196 -0.35513,0.26178 -0.82278,0.39269 -1.40247,0.39269 h -19.07332 v -22.88802 c 0,-0.67318 0.53293,-1.00977 1.5988,-1.00977 v -1.03781 z m 377.78853,0 v 1.03782 c 0.29892,0 0.55158,0.0842 0.75734,0.25243 0.20587,0.1683 0.30861,0.42074 0.30861,0.75733 v 26.0856 c 0,0.3366 -0.10274,0.59837 -0.30861,0.78538 -0.20587,0.1683 -0.45815,0.25243 -0.75734,0.25243 v 1.03781 h 8.66715 v -1.03781 c -0.28031,0 -0.52352,-0.0842 -0.72927,-0.25243 -0.20587,-0.18699 -0.30861,-0.44879 -0.30861,-0.78538 v -10.79888 h 18.48429 v 10.79888 c 0,0.69188 -0.42074,1.03782 -1.2622,1.03782 v 1.03781 h 8.86351 v -1.03781 c -0.28031,0 -0.52355,-0.0842 -0.72927,-0.25244 -0.20586,-0.18698 -0.30861,-0.44878 -0.30861,-0.78537 v -26.08561 c 0,-0.3366 0.10275,-0.58903 0.30861,-0.75732 0.20587,-0.1683 0.44877,-0.25243 0.72927,-0.25243 v -1.03782 h -8.86351 v 1.03782 c 0.84146,0 1.2622,0.3366 1.2622,1.00977 v 9.78911 h -18.48429 v -9.78911 c 0,-0.33661 0.10274,-0.58904 0.30861,-0.75733 0.20587,-0.1683 0.44876,-0.25243 0.72927,-0.25243 v -1.03782 z m -51.89473,3.56223 v 6.59153 h 1.00977 c 0,-0.31788 0.13104,-0.56099 0.39266,-0.72928 0.2617,-0.1683 0.55166,-0.25243 0.86954,-0.25243 h 7.48907 v 19.12944 c 0,0.26182 -0.0934,0.47685 -0.28031,0.64513 -0.16826,0.14962 -0.36482,0.2244 -0.58903,0.2244 v 1.03782 h 7.40696 v -1.03782 c -0.29931,0 -0.55159,-0.0748 -0.75734,-0.2244 -0.18726,-0.1683 -0.28263,-0.38332 -0.28263,-0.64513 v -19.12944 h 7.49109 c 0.31791,0 0.60772,0.0842 0.8695,0.25243 0.26169,0.16831 0.3927,0.41139 0.3927,0.72928 h 1.00977 v -6.59153 h -1.00977 c 0,0.48618 -0.13104,0.84147 -0.3927,1.06587 -0.24309,0.20567 -0.5329,0.30853 -0.8695,0.30853 h -20.47781 c -0.33653,0 -0.63576,-0.10286 -0.89757,-0.30853 -0.24309,-0.2244 -0.36444,-0.57968 -0.36444,-1.06587 z m -200.69088,0.33661 c 0,0.29918 -0.14965,0.55163 -0.4488,0.75732 -0.29931,0.18699 -0.73861,0.2805 -1.3183,0.2805 H 591.9404 v 1.03782 c 0.22448,0 0.42077,0.0748 0.58904,0.2244 0.18726,0.14961 0.28069,0.35529 0.28069,0.61708 v 21.48556 c 0,0.26182 -0.0934,0.47684 -0.28069,0.64513 -0.16827,0.14961 -0.36483,0.2244 -0.58904,0.2244 v 1.03782 h 21.0929 c 1.06587,0 1.5988,0.27115 1.5988,0.81342 h 1.0378 v -6.22689 h -1.0378 c 0,0.35529 -0.14965,0.63578 -0.4488,0.84147 -0.2993,0.20568 -0.68251,0.30854 -1.15,0.30854 h -14.72575 v -6.75982 h 8.38668 c 0.84146,0 1.44919,0.0654 1.82316,0.19633 0.39267,0.1122 0.53294,0.35529 0.42074,0.72928 h 1.15 v -6.1147 h -1.0378 c 0,0.39269 -0.14035,0.64513 -0.42074,0.75733 -0.2617,0.1122 -0.74795,0.1683 -1.45853,0.1683 h -8.86351 v -5.75005 h 14.02452 c 0.6171,0 1.06586,0.0842 1.34637,0.25243 0.2803,0.1683 0.42073,0.44879 0.42073,0.84147 h 1.0378 v -6.36713 z m 159.81943,0 c 0,0.29918 -0.14966,0.55163 -0.44881,0.75732 -0.2993,0.18699 -0.73861,0.2805 -1.3183,0.2805 h -20.39166 v 1.03782 c 0.22448,0 0.42077,0.0748 0.58903,0.2244 0.18726,0.14961 0.2807,0.35529 0.2807,0.61708 v 21.48556 c 0,0.26182 -0.0934,0.47684 -0.2807,0.64513 -0.16826,0.14961 -0.36482,0.2244 -0.58903,0.2244 v 1.03782 h 21.0929 c 1.06587,0 1.5988,0.27115 1.5988,0.81342 h 1.0378 v -6.22689 h -1.0378 c 0,0.35529 -0.14965,0.63578 -0.4488,0.84147 -0.29931,0.20568 -0.68251,0.30854 -1.15,0.30854 h -14.72576 v -6.75982 h 8.38668 c 0.84147,0 1.44919,0.0654 1.82317,0.19633 0.39266,0.1122 0.53293,0.35529 0.42073,0.72928 h 1.15 v -6.1147 h -1.0378 c 0,0.39269 -0.14034,0.64513 -0.42073,0.75733 -0.2617,0.1122 -0.74795,0.1683 -1.45853,0.1683 h -8.86352 v -5.75005 h 14.02452 c 0.61711,0 1.06587,0.0842 1.34637,0.25243 0.28031,0.1683 0.42074,0.44879 0.42074,0.84147 h 1.0378 v -6.36713 z m -81.57065,0.70122 c -2.13174,0 -4.11386,0.27116 -5.94637,0.81342 -1.81386,0.52359 -3.42201,1.30896 -4.82444,2.35612 -1.40243,1.04717 -2.50572,2.41222 -3.30981,4.09516 -0.80405,1.66425 -1.2061,3.56223 -1.2061,5.69396 0,2.13173 0.40205,4.03906 1.2061,5.722 0.80409,1.68294 1.90738,3.04799 3.30981,4.09516 1.40243,1.02847 3.01058,1.81384 4.82444,2.35612 1.83251,0.54228 3.81463,0.81342 5.94637,0.81342 1.70166,0 3.30046,-0.1683 4.79641,-0.50488 1.51463,-0.3366 2.90776,-0.85082 4.17931,-1.5427 1.29027,-0.71057 2.39351,-1.57074 3.30976,-2.58051 0.93499,-1.00977 1.66425,-2.22522 2.18784,-3.64637 0.52359,-1.42116 0.78537,-2.9919 0.78537,-4.71224 0,-2.13173 -0.40201,-4.02971 -1.2061,-5.69396 -0.78537,-1.68294 -1.87927,-3.04799 -3.28174,-4.09516 -1.40243,-1.04716 -3.01996,-1.83253 -4.85247,-2.35612 -1.81386,-0.54228 -3.78664,-0.81342 -5.91838,-0.81342 z m 102.7096,0 c -3.59027,0 -6.4232,0.72927 -8.49888,2.18783 -2.0756,1.43985 -3.11343,3.38458 -3.11343,5.8342 0,1.15936 0.271,2.16912 0.81343,3.02929 0.54224,0.86018 1.2622,1.524 2.15977,1.99148 0.89757,0.46749 1.91672,0.86953 3.05734,1.20611 1.14065,0.33657 2.30938,0.57968 3.50614,0.72928 1.19675,0.13088 2.36544,0.28984 3.50614,0.47683 1.14065,0.1683 2.15977,0.34595 3.05733,0.53294 0.89757,0.1683 1.61749,0.44878 2.15977,0.84147 0.54228,0.39268 0.81344,0.88821 0.81344,1.48659 0,0.67318 -0.2617,1.25286 -0.78537,1.73904 -0.52359,0.48618 -1.19676,0.84147 -2.01954,1.06587 -0.80409,0.2244 -1.55208,0.38336 -2.24393,0.47683 -0.6919,0.0748 -1.36506,0.1122 -2.01954,0.1122 -0.86016,0 -1.99147,-0.14961 -3.39394,-0.44878 -1.38375,-0.31788 -2.6927,-0.78538 -3.92683,-1.40246 -1.21549,-0.61708 -1.82321,-1.2809 -1.82321,-1.99148 0,-0.1122 0.0116,-0.28984 0.0271,-0.53293 0.0194,-0.24309 0.0271,-0.41139 0.0271,-0.50488 l -1.0939,-0.30853 -2.6366,6.45128 0.81541,0.56098 c 0.16826,-0.2244 0.3927,-0.33661 0.67317,-0.33661 0.0934,0 0.73864,0.23375 1.9354,0.70123 1.21545,0.44878 2.71139,0.90692 4.48784,1.3744 1.79517,0.44879 3.45004,0.67318 4.96467,0.67318 1.1407,0 2.24394,-0.0748 3.30981,-0.2244 1.08456,-0.13089 2.19714,-0.39269 3.33784,-0.78538 1.14062,-0.39269 2.1317,-0.88822 2.97316,-1.4866 0.84147,-0.59838 1.5334,-1.40245 2.07564,-2.41221 0.54232,-1.00977 0.81344,-2.15043 0.81344,-3.42199 0,-1.38375 -0.35514,-2.55246 -1.06587,-3.50613 -0.69185,-0.95367 -1.59876,-1.67359 -2.72077,-2.15977 -1.12193,-0.48619 -2.36545,-0.86952 -3.73051,-1.15001 -1.34637,-0.29919 -2.70204,-0.52358 -4.0671,-0.67318 -1.34637,-0.1683 -2.58054,-0.34595 -3.70247,-0.53293 -1.12197,-0.18699 -2.03823,-0.47684 -2.74881,-0.86952 -0.69189,-0.41139 -1.03783,-0.94432 -1.03783,-1.5988 0,-0.99107 0.53293,-1.72034 1.5988,-2.18782 1.0846,-0.46749 2.46834,-0.70123 4.15127,-0.70123 1.92603,0 3.70248,0.2244 5.32931,0.67318 1.62683,0.44878 2.84232,1.00976 3.64637,1.68294 0.33653,0.26178 0.5424,0.71992 0.61707,1.3744 l 1.03784,0.36463 2.88903,-5.41346 -0.64513,-0.61708 c -0.0388,0.0186 -0.14966,0.0841 -0.33653,0.19634 -0.18687,0.1122 -0.33652,0.18698 -0.4488,0.2244 -0.11205,0.0186 -0.27101,0.0279 -0.47684,0.0279 -0.20548,0 -0.62641,-0.14023 -1.2622,-0.42074 -0.61706,-0.29919 -1.3183,-0.61707 -2.10367,-0.95366 -0.7854,-0.3366 -1.89799,-0.64513 -3.33783,-0.92562 -1.42116,-0.29919 -2.9358,-0.44879 -4.54394,-0.44879 z m 150.1405,0 c -4.99274,0 -8.9383,1.15936 -11.83668,3.47808 -2.89842,2.30002 -4.34761,5.46021 -4.34761,9.48058 0,4.02036 1.44919,7.1899 4.34761,9.50862 2.89838,2.31873 6.84394,3.47808 11.83668,3.47808 1.72035,0 3.36587,-0.13089 4.93664,-0.39268 1.58943,-0.2805 2.9358,-0.63578 4.03904,-1.06587 1.12197,-0.43009 2.01954,-0.81342 2.6927,-1.15001 0.69189,-0.35529 1.26224,-0.69187 1.71101,-1.00976 v -0.67318 c -0.37414,-0.13089 -0.60765,-0.26182 -0.70124,-0.39269 -0.0934,-0.14957 -0.14035,-0.40203 -0.14035,-0.75732 v -5.46956 c 0,-0.39268 0.0562,-0.68252 0.16827,-0.86952 0.11204,-0.20572 0.33652,-0.37402 0.67316,-0.50488 v -1.03782 h -11.24764 c -1.00973,0 -1.56136,-0.30853 -1.65491,-0.92562 h -1.03784 v 5.91835 h 1.03784 c 0.0934,-0.80407 0.6451,-1.20611 1.65491,-1.20611 h 5.91834 v 3.61833 c -2.15043,1.12196 -5.05819,1.68294 -8.72325,1.68294 -0.93498,0 -1.86062,-0.0935 -2.77687,-0.2805 -0.89757,-0.18699 -1.79514,-0.49554 -2.6927,-0.92562 -0.87889,-0.43009 -1.65491,-0.96302 -2.32807,-1.5988 -0.65448,-0.65447 -1.18742,-1.47725 -1.59881,-2.46831 -0.41139,-0.99107 -0.61706,-2.10368 -0.61706,-3.33784 0,-1.53335 0.2803,-2.8797 0.84146,-4.03906 0.56097,-1.17806 1.32765,-2.10368 2.3,-2.77686 0.99109,-0.69187 2.10371,-1.20611 3.33784,-1.54269 1.23417,-0.3366 2.5805,-0.50489 4.03908,-0.50489 1.34637,0 2.6927,0.18699 4.03907,0.56098 1.34633,0.35529 2.42155,0.80408 3.22564,1.34636 0.82278,0.52358 1.23413,1.01911 1.23413,1.4866 0,0.13089 -0.0388,0.34594 -0.11205,0.64513 l 0.7012,0.39268 3.30981,-6.25493 -0.67317,-0.36464 c -0.43008,0.31788 -0.85081,0.47684 -1.26224,0.47684 -0.14965,0 -0.36482,-0.0468 -0.64509,-0.14023 -0.2807,-0.1122 -0.6919,-0.28047 -1.23417,-0.50489 -0.54228,-0.24309 -1.02846,-0.44879 -1.45858,-0.61707 -2.15038,-0.84148 -4.46911,-1.26221 -6.95614,-1.26221 z m 131.84055,0 c -1.9074,0 -3.7399,0.2805 -5.4977,0.84147 -1.739,0.54228 -3.3098,1.337 -4.7122,2.38417 -1.4025,1.04717 -2.5244,2.41222 -3.3659,4.09516 -0.8228,1.66425 -1.2342,3.52483 -1.2342,5.58176 0,2.05693 0.4114,3.93621 1.2342,5.63785 0.8415,1.68295 1.9447,3.05735 3.3098,4.12321 1.365,1.04717 2.889,1.86059 4.572,2.44027 1.7016,0.56098 3.45,0.84147 5.2452,0.84147 1.5707,0 3.1227,-0.17764 4.6561,-0.53293 1.5334,-0.35529 2.7675,-0.74798 3.7025,-1.17806 0.9349,-0.44878 1.7858,-0.85082 2.5524,-1.20611 0.7853,-0.35529 1.2995,-0.53293 1.5427,-0.53293 0.2431,0 0.5703,0.10286 0.9817,0.30853 l 0.561,-0.30853 -4.2354,-6.08664 -0.6451,0.58903 c 0.039,0.29919 0.056,0.64513 0.056,1.03781 0,0.43009 -0.4675,0.93497 -1.4025,1.51465 -0.9162,0.57968 -2.1036,1.08456 -3.5622,1.51465 -1.4398,0.43008 -2.8049,0.64513 -4.0951,0.64513 -2.3749,0 -4.4692,-0.82277 -6.283,-2.46832 -1.7951,-1.66424 -2.6927,-3.81467 -2.6927,-6.45128 0,-2.73011 0.8508,-4.83378 2.5524,-6.31103 1.7204,-1.49595 3.9923,-2.24392 6.8159,-2.24392 1.4212,0 2.7676,0.18698 4.0391,0.56098 1.2716,0.35529 2.2252,0.74797 2.861,1.17806 0.6545,0.41138 0.9818,0.76667 0.9818,1.06586 0,0.0748 0.012,0.1683 0.027,0.2805 0.019,0.1122 0.027,0.19637 0.027,0.25243 l 0.6171,0.44879 3.7866,-5.44151 -0.6731,-0.42074 c -0.056,0.0372 -0.1497,0.10286 -0.2807,0.19633 -0.1121,0.0935 -0.2245,0.1683 -0.3366,0.2244 -0.093,0.0372 -0.1965,0.0561 -0.3086,0.0561 -0.093,0 -0.3086,-0.0561 -0.6451,-0.1683 -0.3179,-0.1122 -0.804,-0.28984 -1.4585,-0.53293 -0.6358,-0.26177 -1.1594,-0.46748 -1.5708,-0.61708 -2.3374,-0.87887 -4.7122,-1.3183 -7.1244,-1.3183 z m 73.1559,0 c -2.1318,0 -4.1139,0.27116 -5.9465,0.81342 -1.8138,0.52359 -3.4219,1.30896 -4.8244,2.35612 -1.4025,1.04717 -2.5057,2.41222 -3.3098,4.09516 -0.8041,1.66425 -1.2061,3.56223 -1.2061,5.69396 0,2.13173 0.402,4.03906 1.2061,5.722 0.8041,1.68294 1.9073,3.04799 3.3098,4.09516 1.4025,1.02847 3.0106,1.81384 4.8244,2.35612 1.8326,0.54228 3.8147,0.81342 5.9465,0.81342 1.7016,0 3.3004,-0.1683 4.7963,-0.50488 1.5147,-0.3366 2.9078,-0.85082 4.1793,-1.5427 1.2903,-0.71057 2.3935,-1.57074 3.3098,-2.58051 0.935,-1.00977 1.6643,-2.22522 2.1878,-3.64637 0.5236,-1.42116 0.7854,-2.9919 0.7854,-4.71224 0,-2.13173 -0.402,-4.02971 -1.2061,-5.69396 -0.7854,-1.68294 -1.8793,-3.04799 -3.2817,-4.09516 -1.4025,-1.04716 -3.02,-1.83253 -4.8525,-2.35612 -1.8139,-0.54228 -3.7866,-0.81342 -5.9183,-0.81342 z m 36.1151,0 c -2.1318,0 -4.1139,0.27116 -5.9464,0.81342 -1.8138,0.52359 -3.422,1.30896 -4.8244,2.35612 -1.4025,1.04717 -2.5057,2.41222 -3.3098,4.09516 -0.8041,1.66425 -1.2061,3.56223 -1.2061,5.69396 0,2.13173 0.402,4.03906 1.2061,5.722 0.8041,1.68294 1.9073,3.04799 3.3098,4.09516 1.4024,1.02847 3.0106,1.81384 4.8244,2.35612 1.8325,0.54228 3.8146,0.81342 5.9464,0.81342 1.7016,0 3.3004,-0.1683 4.7964,-0.50488 1.5146,-0.3366 2.9077,-0.85082 4.1793,-1.5427 1.2903,-0.71057 2.3935,-1.57074 3.3098,-2.58051 0.9349,-1.00977 1.6642,-2.22522 2.1878,-3.64637 0.5236,-1.42116 0.7854,-2.9919 0.7854,-4.71224 0,-2.13173 -0.4021,-4.02971 -1.2061,-5.69396 -0.7854,-1.68294 -1.8793,-3.04799 -3.2818,-4.09516 -1.4024,-1.04716 -3.0199,-1.83253 -4.8525,-2.35612 -1.8138,-0.54228 -3.7866,-0.81342 -5.9183,-0.81342 z m -653.4725,0.3366 v 1.03782 c 0.0194,0 0.0388,0.009 0.0562,0.0279 0.2617,0.13089 0.39267,0.32726 0.39267,0.58903 0,0.3366 -0.2524,1.08457 -0.75734,2.24392 l -8.55494,18.68067 c -0.44877,1.00977 -1.03784,1.5614 -1.76711,1.65489 v 1.03781 h 7.68545 v -1.03781 c -0.37413,0 -0.6546,-0.0468 -0.84147,-0.14023 -0.16826,-0.0935 -0.25239,-0.27116 -0.25239,-0.53294 0,-0.18698 0.17756,-0.69187 0.53293,-1.51464 l 1.5988,-3.0854 h 12.28549 l 1.57073,3.25369 c 0.2617,0.65448 0.39267,1.12196 0.39267,1.40245 0,0.24309 -0.10274,0.43943 -0.30861,0.58903 -0.20549,0.13089 -0.41132,0.19633 -0.61707,0.19633 v 0.86952 h 8.16228 v -1.03781 c -0.63579,-0.14958 -1.0939,-0.51423 -1.3744,-1.09391 l -9.31228,-19.52214 c -0.0748,-0.1683 -0.19657,-0.41138 -0.36483,-0.72927 -0.16826,-0.3366 -0.29,-0.58903 -0.36444,-0.75732 -0.0562,-0.18699 -0.0841,-0.34595 -0.0841,-0.47684 0,-0.1122 0.0194,-0.20567 0.0562,-0.2805 0.0562,-0.0936 0.10274,-0.14969 0.14035,-0.1683 0.0562,-0.0376 0.13104,-0.0655 0.22447,-0.0841 0.0942,-0.0376 0.15004,-0.0655 0.16827,-0.0841 v -1.03782 z m 25.70895,0 v 1.03782 c 0.59837,0 0.89756,0.2805 0.89756,0.84147 v 21.48556 c 0,0.2805 -0.0841,0.49553 -0.25239,0.64513 -0.16826,0.14961 -0.38344,0.2244 -0.6451,0.2244 v 1.03781 h 7.51715 v -1.03781 c -0.29931,0 -0.56105,-0.0748 -0.78541,-0.2244 -0.20587,-0.1683 -0.30861,-0.38332 -0.30861,-0.64513 v -6.42323 l 4.48784,-3.56223 7.06838,8.61106 c 0.84147,0.99106 1.2622,1.62684 1.2622,1.90733 0,0.22441 -0.21517,0.33661 -0.64514,0.33661 v 1.03781 h 8.49889 v -1.03781 c -0.11205,-0.0372 -0.23379,-0.0748 -0.36483,-0.1122 -0.11243,-0.0561 -0.23379,-0.13089 -0.36483,-0.22441 -0.13065,-0.1122 -0.24309,-0.19637 -0.33652,-0.25243 -0.0934,-0.0748 -0.21479,-0.18699 -0.36444,-0.3366 -0.14966,-0.1683 -0.26209,-0.2805 -0.33653,-0.3366 -0.0748,-0.0748 -0.19617,-0.20568 -0.36444,-0.39269 -0.14965,-0.20571 -0.25239,-0.3366 -0.30861,-0.39268 -0.0562,-0.0748 -0.16826,-0.21506 -0.33652,-0.42074 -0.16826,-0.2244 -0.27101,-0.35529 -0.30861,-0.39268 l -9.08788,-11.27572 9.59274,-7.74153 c 0.84147,-0.69188 1.53336,-1.13131 2.07564,-1.31831 v -1.03781 h -9.48058 v 0.86951 c 0.20587,0 0.41135,0.0561 0.6171,0.1683 0.20587,0.11221 0.30861,0.26178 0.30861,0.44879 0,0.1683 -0.53293,0.70122 -1.5988,1.59879 -1.04714,0.89757 -2.70205,2.25327 -4.96467,4.06711 -2.26263,1.81384 -3.94556,3.1789 -5.04884,4.09517 v -9.36838 c 0,-0.26178 0.10274,-0.46748 0.30861,-0.61709 0.22448,-0.14961 0.48621,-0.2244 0.7854,-0.2244 v -1.03781 z m 156.87425,0 v 1.03782 c 0.69189,0 1.03784,0.2805 1.03784,0.84147 v 21.48556 c 0,0.57968 -0.34583,0.86952 -1.03784,0.86952 v 1.03782 h 7.62934 v -1.03782 c -0.2617,0 -0.51409,-0.0748 -0.75733,-0.2244 -0.22448,-0.1683 -0.33653,-0.38332 -0.33653,-0.64513 v -8.19032 h 7.99398 l 4.54394,6.75982 c 0.56096,0.80408 0.84147,1.40245 0.84147,1.79514 0,0.3366 -0.24309,0.50488 -0.72927,0.50488 v 1.03782 h 8.77934 v -1.03782 c -0.97235,-0.24308 -1.70162,-0.71992 -2.18783,-1.4305 l -5.60981,-8.21837 c 1.81386,-0.43008 3.35652,-1.23415 4.62811,-2.41221 1.27154,-1.19676 1.90733,-2.7675 1.90733,-4.71224 0,-2.63662 -0.91629,-4.5346 -2.7488,-5.69396 -1.83255,-1.17806 -4.5346,-1.76709 -8.10618,-1.76709 z m 196.66386,0 v 1.03782 c 1.08456,0 1.62683,0.2805 1.62683,0.84147 v 21.48556 c 0,0.57968 -0.54227,0.86952 -1.62683,0.86952 v 1.03782 h 8.75127 v -1.03782 c -1.08455,0 -1.62683,-0.28984 -1.62683,-0.86952 v -21.48556 c 0,-0.56099 0.54228,-0.84147 1.62683,-0.84147 v -1.03782 z m 56.13014,0 v 1.03782 c 0.24309,0 0.45082,0.0748 0.61908,0.2244 0.16826,0.14961 0.25046,0.35529 0.25046,0.61708 v 21.48556 c 0,0.26182 -0.0822,0.47684 -0.25046,0.64513 -0.16826,0.14961 -0.37568,0.2244 -0.61908,0.2244 v 1.03782 h 7.23866 v -1.03782 c -0.24309,0 -0.44884,-0.0748 -0.61711,-0.2244 -0.14965,-0.1683 -0.22641,-0.38332 -0.22641,-0.64513 v -8.66715 h 15.37089 v 8.66715 c 0,0.26182 -0.0841,0.47684 -0.2524,0.64513 -0.14965,0.14961 -0.34583,0.2244 -0.58903,0.2244 v 1.03782 h 7.2387 v -1.03782 c -0.2431,0 -0.4489,-0.0748 -0.6171,-0.2244 -0.1683,-0.1683 -0.2524,-0.38332 -0.2524,-0.64513 v -21.48556 c 0,-0.26178 0.084,-0.46748 0.2524,-0.61708 0.1682,-0.14962 0.3737,-0.2244 0.6171,-0.2244 v -1.03782 h -7.2387 v 1.03782 c 0.24309,0 0.43938,0.0748 0.58903,0.2244 0.16826,0.14961 0.2524,0.35529 0.2524,0.61708 v 8.10617 h -15.37089 v -8.10617 c 0,-0.26178 0.0768,-0.46748 0.22641,-0.61708 0.16827,-0.14962 0.37414,-0.2244 0.61711,-0.2244 v -1.03782 z m 130.1575,0 v 1.03782 c 0.2431,0 0.4489,0.0748 0.6171,0.2244 0.1683,0.14961 0.2524,0.35529 0.2524,0.61708 v 21.48556 c 0,0.26182 -0.084,0.47684 -0.2524,0.64513 -0.1682,0.14961 -0.3741,0.2244 -0.6171,0.2244 v 1.03782 h 7.2367 v -1.03782 c -0.2431,0 -0.4488,-0.0748 -0.6171,-0.2244 -0.1496,-0.1683 -0.2245,-0.38332 -0.2245,-0.64513 v -8.66715 h 15.3709 v 8.66715 c 0,0.26182 -0.084,0.47684 -0.2524,0.64513 -0.1496,0.14961 -0.3458,0.2244 -0.589,0.2244 v 1.03782 h 7.2366 v -1.03782 c -0.2431,0 -0.4488,-0.0748 -0.617,-0.2244 -0.1683,-0.1683 -0.2524,-0.38332 -0.2524,-0.64513 v -21.48556 c 0,-0.26178 0.084,-0.46748 0.2524,-0.61708 0.1682,-0.14962 0.3741,-0.2244 0.617,-0.2244 v -1.03782 h -7.2366 v 1.03782 c 0.2431,0 0.4394,0.0748 0.589,0.2244 0.1683,0.14961 0.2524,0.35529 0.2524,0.61708 v 8.10617 h -15.3709 v -8.10617 c 0,-0.26178 0.075,-0.46748 0.2245,-0.61708 0.1683,-0.14962 0.3741,-0.2244 0.6171,-0.2244 v -1.03782 z m 110.8979,0 v 1.03782 c 0.9911,0 1.4866,0.2805 1.4866,0.84147 v 21.48556 c 0,0.57968 -0.4955,0.86952 -1.4866,0.86952 v 1.03782 h 22.4954 c 1.0845,0 1.6268,0.25243 1.6268,0.75732 h 1.0378 v -6.22689 h -1.0378 c 0,0.37398 -0.159,0.67317 -0.4768,0.89757 -0.2993,0.20568 -0.6826,0.30854 -1.15,0.30854 h -15.4831 v -19.12945 c 0,-0.56098 0.4394,-0.84147 1.3183,-0.84147 v -1.03781 z m -516.92175,3.89882 c 1.23417,0 2.43093,0.20567 3.59031,0.61708 1.17807,0.39268 2.22521,0.95366 3.14147,1.68294 0.91629,0.72927 1.64556,1.65489 2.18784,2.77685 0.56096,1.10327 0.84146,2.31872 0.84146,3.64638 0,1.75774 -0.47683,3.31913 -1.4305,4.68419 -0.93494,1.34635 -2.14104,2.36547 -3.61834,3.05734 -1.45853,0.67318 -3.0293,1.00977 -4.71224,1.00977 -1.68293,0 -3.26301,-0.3366 -4.74027,-1.00977 -1.45853,-0.69187 -2.66463,-1.71099 -3.61834,-3.05734 -0.95367,-1.36506 -1.4305,-2.92645 -1.4305,-4.68419 0,-1.75774 0.47683,-3.30979 1.4305,-4.65614 0.95371,-1.36505 2.15981,-2.38417 3.61834,-3.05735 1.47726,-0.67318 3.05734,-1.00976 4.74027,-1.00976 z m 457.84655,0 c 1.2341,0 2.4309,0.20567 3.5902,0.61708 1.1781,0.39268 2.2252,0.95366 3.1415,1.68294 0.9163,0.72927 1.6456,1.65489 2.1878,2.77685 0.561,1.10327 0.8415,2.31872 0.8415,3.64638 0,1.75774 -0.4768,3.31913 -1.4305,4.68419 -0.935,1.34635 -2.1411,2.36547 -3.6183,3.05734 -1.4586,0.67318 -3.0293,1.00977 -4.7122,1.00977 -1.683,0 -3.2631,-0.3366 -4.7404,-1.00977 -1.4585,-0.69187 -2.6646,-1.71099 -3.6183,-3.05734 -0.9536,-1.36506 -1.4305,-2.92645 -1.4305,-4.68419 0,-1.75774 0.4769,-3.30979 1.4305,-4.65614 0.9537,-1.36505 2.1598,-2.38417 3.6183,-3.05735 1.4773,-0.67318 3.0574,-1.00976 4.7404,-1.00976 z m 36.1151,0 c 1.2342,0 2.4309,0.20567 3.5903,0.61708 1.178,0.39268 2.2252,0.95366 3.1415,1.68294 0.9163,0.72927 1.6455,1.65489 2.1878,2.77685 0.561,1.10327 0.8415,2.31872 0.8415,3.64638 0,1.75774 -0.4769,3.31913 -1.4305,4.68419 -0.935,1.34635 -2.1411,2.36547 -3.6184,3.05734 -1.4585,0.67318 -3.0292,1.00977 -4.7122,1.00977 -1.683,0 -3.2631,-0.3366 -4.7403,-1.00977 -1.4586,-0.69187 -2.6647,-1.71099 -3.6183,-3.05734 -0.9537,-1.36506 -1.4305,-2.92645 -1.4305,-4.68419 0,-1.75774 0.4768,-3.30979 1.4305,-4.65614 0.9536,-1.36505 2.1597,-2.38417 3.6183,-3.05735 1.4772,-0.67318 3.0573,-1.00976 4.7403,-1.00976 z m -464.24166,0.3366 h 9.08788 c 3.75853,0 5.63784,1.03781 5.63784,3.11344 0,2.37482 -1.87931,3.56223 -5.63784,3.56223 h -9.08788 z m -185.33204,0.81342 4.65614,9.64887 h -8.75132 z" />
  <path
    id="logoShape"
    style="fill:var(--foreground-color);"
    d="M 110.07803,70.960646 25.570282,264.63526 c 0,0 118.972328,119.39819 267.615898,142.60131 47.11051,7.35392 77.96482,-28.19381 70.14663,-59.18346 -2.80022,-11.0995 -4.63859,-13.3185 -12.0751,-18.31202 -6.54069,-4.39196 -23.21459,-4.0631 -23.21459,-4.0631 l -0.26647,0.41272 c -0.97196,-3.05684 -4.9487,-17.27777 4.81041,-18.59852 23.36621,-3.16222 38.03927,24.10605 35.67434,46.29294 C 348.16728,542.29726 206.76107,649.03935 206.76107,649.03935 L 416.7421,625.38801 c 0,0 43.91723,-162.73126 -10.31003,-303.06188 -17.18657,-44.47588 -63.40008,-53.42407 -86.32883,-31.15848 -8.21232,7.97483 -9.21491,10.67734 -9.82117,19.61429 -0.44254,6.5236 5.16942,17.00271 7.17654,20.53591 -2.64485,2.82961 -12.45633,12.37753 -18.25992,4.87051 -14.42167,-18.65462 1.85602,-44.99915 22.25291,-54.04449 173.30329,-76.85402 336.44814,-7.76357 336.44814,-7.76357 L 532.42636,104.35703 c 0,0 -162.88753,43.33509 -257.30376,160.46256 -29.92394,37.12198 -14.56465,81.61585 16.18229,90.33994 11.01257,3.12468 13.85152,2.64316 21.89427,-1.30027 6.63872,-3.25502 13.8921,-15.90354 14.78987,-17.49859 l 0.58502,0.73328 c 0,0 18.56621,3.3999 14.38114,13.60779 -8.94453,21.81681 -39.89735,20.89112 -57.92928,7.74955 C 131.81665,246.79319 110.07803,70.960646 110.07803,70.960646 Z m 422.73301,73.105814 58.96509,78.38505 -66.10558,2.93914 -49.93731,-67.67032 z m -434.64383,10.1237 35.59824,55.77953 -33.63481,77.08276 -40.364574,-42.60448 z m 357.05616,10.46029 45.99841,62.16068 -49.0818,5.97044 -38.67159,-52.42967 z m -58.95106,23.49708 35.36582,46.96612 -37.46747,8.00599 -28.94456,-39.25463 z m -43.95474,22.44124 26.58238,36.22533 -27.19145,8.41271 -23.70745,-28.17125 z m -205.09659,19.84469 29.71194,39.5211 -26.06958,59.70439 -34.47627,-28.3095 z m 172.24916,3.43 21.59976,25.51661 -18.46629,9.19207 -19.6203,-21.51361 z m -22.31502,19.3298 18.43022,19.5081 -12.71222,9.82718 -18.56046,-16.60903 z m -17.07185,18.86498 18.46629,15.58325 -5.82619,9.79512 -20.8785,-10.91108 z m 70.88393,13.14498 -9.20008,14.61756 -2.84698,-0.66116 3.30979,-13.60378 z m 6.80991,0.72327 9.37237,3.12546 -14.05856,15.03429 -5.23916,-2.27598 z m -168.57473,0.61707 25.66687,28.44374 -19.52213,44.69414 -29.13494,-19.02727 z m 147.43777,1.59279 -2.56047,11.75255 -1.56073,0.37665 -4.24943,-9.0378 z m -66.86089,4.30553 20.42771,11.14749 -2.39418,10.10767 -21.68592,-5.11695 z m 103.25046,0.21238 12.15123,11.23164 -19.8687,12.11919 -7.55517,-7.13047 z m -47.55909,1.36238 3.55221,8.67317 -1.96945,1.21813 -6.54945,-5.03881 z m -7.25269,7.5472 6.43526,4.21337 -0.82144,2.49836 -7.31078,-2.00951 z m 71.05415,7.06836 8.41072,14.36912 -22.72975,8.20234 -5.5697,-9.94539 z m -74.1155,0.52491 7.92987,1.61282 -0.15028,1.42049 -7.68944,0.83746 z m 7.70147,5.143 0.23642,2.08765 -6.64963,2.98922 -0.77335,-3.7205 z m -56.9095,1.17605 20.04905,4.65815 0.64713,5.67392 -18.71672,-0.65315 z m 57.10184,3.07939 0.8054,1.88329 -6.00049,3.34184 -0.9176,-1.93538 z m 0.84948,3.92286 0.78137,2.05559 -5.40946,2.96118 -1.03581,-1.58478 z m 0.84748,3.434 1.17005,1.95542 -4.32957,2.14976 -0.83947,0.12821 -0.88355,-1.41447 z m -99.04316,0.45279 20.8825,19.34182 -12.54393,34.61652 -26.41819,-12.82442 z m 105.21796,2.69872 v 5.63986 l -2.27798,0.0361 0.35059,-5.60581 z m 3.25769,0 0.14023,6.62157 -2.1718,-0.35059 0.14024,-6.16679 z m 66.70456,0.67117 4.60004,17.48457 -26.10968,6.20686 -2.15574,-15.92184 z m -64.671,0.0641 2.13573,0.17431 -0.20835,6.93813 -2.03355,-0.24445 z m 4.5199,0.98171 3.60831,1.19008 -2.41823,6.90207 -1.92737,-0.83947 z m -70.02844,0.63311 17.26018,0.65715 0.85149,2.79689 -13.43549,3.93488 z m 76.1251,1.50263 3.39794,1.85725 -5.36137,6.0626 -1.15603,-0.84148 z m -27.31977,0.0601 2.67869,0.13422 2.66866,1.7711 -0.90358,1.70298 -4.88454,-2.81893 z m -1.6008,1.53469 5.27122,3.2056 -0.85549,1.69096 -5.80415,-3.18958 z m -3.13347,2.76283 5.8963,3.52616 -1.22013,1.76308 -5.90432,-3.65038 z m 37.27316,0.12821 3.22364,3.81867 -6.866,3.46807 -1.75307,-1.96143 z m -60.18121,1.29226 1.10793,1.16403 -5.70397,8.19833 -6.862,-5.70196 z m 19.78258,1.26421 5.91234,4.26545 -2.83496,2.53043 -4.76833,-5.5457 z m -14.82792,1.717 2.03956,1.09592 -1.0899,8.19232 -6.68369,-1.87728 z m 11.27171,0.51891 4.56998,6.24091 -3.30778,2.01352 -2.57049,-7.67342 z m -3.83871,1.18206 1.91334,7.33683 -4.9186,0.88154 0.43075,-7.67943 z m 52.20928,1.17205 1.717,6.72776 -9.28624,-1.2602 -0.0701,-2.31404 z m -100.96252,8.2945 17.19406,11.39593 -8.82143,27.74851 -19.67039,-7.67943 z m 93.74389,1.41247 9.95141,0.83947 -1.50664,8.79538 -8.89956,-8.09415 z m 58.63445,1.07789 3.18555,20.8745 -32.89954,5.9484 1.27225,-20.588 z m -60.87636,5.01877 10.1257,9.66891 -4.0631,7.74353 -8.0601,-15.2767 z m -6.76183,6.41121 8.79338,16.53691 -7.39293,6.55348 -5.99047,-19.69245 z m -60.46171,1.49061 14.86599,6.09465 -5.10292,24.37864 -17.44249,-4.75833 z m 49.39036,3.55421 6.41121,21.33731 -15.80163,4.90659 -0.56098,-23.26469 z m -27.93484,3.72852 11.39792,0.14826 0.98973,23.53717 -16.64911,0.10002 z m 111.45878,11.46403 2.10367,29.29123 -44.66402,4.91059 6.31097,-27.75656 z m 1.47257,43.83264 -1.91133,34.74476 -58.35595,7.1465 11.79861,-36.44972 z m -3.75858,53.5356 -7.2787,44.01296 -76.83226,8.75333 19.36987,-45.49158 z m -11.53214,65.23806 -16.71524,56.26037 -97.36614,11.87278 30.50734,-58.71867 z" />
</svg>
